G04 PROTEUS GERBER X2 FILE*
%TF.GenerationSoftware,Labcenter,Proteus,8.7-SP3-Build25561*%
%TF.CreationDate,2018-12-01T16:26:02+00:00*%
%TF.FileFunction,Plated,0,2,PTH*%
%TF.FilePolarity,Positive*%
%TF.Part,Single*%
%TF.SameCoordinates,{6994f0fc-588b-4978-b2a0-abdd5f5918e5}*%
%FSLAX45Y45*%
%MOMM*%
G01*
%TA.AperFunction,ViaDrill*%
%ADD23C,0.381000*%
%TA.AperFunction,ComponentDrill*%
%ADD24C,1.524000*%
%ADD25C,1.016000*%
%ADD26C,0.850000*%
%TA.AperFunction,ComponentDrill*%
%ADD27C,1.000000*%
%TA.AperFunction,ComponentDrill*%
%ADD28C,0.762000*%
%TD.AperFunction*%
D23*
X+1270000Y+1968500D03*
X-3406021Y-1355164D03*
X-3471761Y-1683870D03*
X+930491Y+1653459D03*
X+730921Y-1703430D03*
X+720511Y+295258D03*
X-2901192Y-1649854D03*
X-2906461Y-2652461D03*
X-2921000Y+190500D03*
X-2921168Y-622311D03*
D24*
X-3000000Y+2900000D03*
X-3000000Y+3408000D03*
D25*
X-2100000Y+2600000D03*
X-2100000Y+3616000D03*
X-1500000Y+3616000D03*
X-1500000Y+2600000D03*
X-1100000Y+3616000D03*
X-1100000Y+2600000D03*
X-500000Y+3616000D03*
X-500000Y+2600000D03*
D26*
X+600000Y+2650000D03*
X+600000Y+3150000D03*
D27*
X+2354000Y+1800000D03*
X+2100000Y+1800000D03*
X+1846000Y+1800000D03*
D25*
X+1046000Y+4300000D03*
X+1300000Y+4300000D03*
X+1554000Y+4300000D03*
X-708000Y+4400000D03*
X-454000Y+4400000D03*
X-200000Y+4400000D03*
X+54000Y+4400000D03*
X+308000Y+4400000D03*
D28*
X+1800000Y+3516000D03*
X+1800000Y+2500000D03*
X+2500000Y+3516000D03*
X+2500000Y+2500000D03*
D25*
X+2246000Y+4200000D03*
X+2500000Y+4200000D03*
X+3000000Y+4200000D03*
X+3254000Y+4200000D03*
X+3300000Y+3162000D03*
X+3300000Y+2908000D03*
X+3300000Y+2654000D03*
X+3300000Y+2400000D03*
X+3300000Y+2146000D03*
X+3300000Y+1892000D03*
D28*
X-362000Y+102000D03*
X-362000Y-152000D03*
X-362000Y-406000D03*
X-362000Y-660000D03*
X-362000Y-914000D03*
X-362000Y-1168000D03*
X-362000Y-1422000D03*
X-362000Y-1676000D03*
X-362000Y-1930000D03*
X-362000Y-2184000D03*
X-362000Y-2438000D03*
X-362000Y-2692000D03*
X-362000Y-2946000D03*
X-362000Y-3200000D03*
X+400000Y-3200000D03*
X+400000Y-2946000D03*
X+400000Y-2692000D03*
X+400000Y-2438000D03*
X+400000Y-2184000D03*
X+400000Y-1930000D03*
X+400000Y-1676000D03*
X+400000Y-1422000D03*
X+400000Y-1168000D03*
X+400000Y-914000D03*
X+400000Y-660000D03*
X+400000Y-406000D03*
X+400000Y-152000D03*
X+400000Y+100000D03*
X-1000000Y-2308000D03*
X-1000000Y-1800000D03*
X-1500000Y-1927000D03*
X-2008000Y-1927000D03*
X-1492000Y-2427000D03*
X-2000000Y-2427000D03*
X+308000Y+1300000D03*
X-200000Y+1300000D03*
D25*
X+1100000Y-1700000D03*
X+1100000Y-1446000D03*
X+3300000Y+108000D03*
X+3300000Y-146000D03*
X+3300000Y-400000D03*
X+3300000Y-654000D03*
X+3300000Y-908000D03*
X+3300000Y-1162000D03*
X+3300000Y-2184000D03*
X+3300000Y-2438000D03*
X+3300000Y-2692000D03*
X+3300000Y-2946000D03*
X+3300000Y-3200000D03*
X+3300000Y-3454000D03*
X-3200000Y-3300000D03*
X-3200000Y-3046000D03*
X-3200000Y-2792000D03*
X-3200000Y-2538000D03*
X-3200000Y-2284000D03*
X-3200000Y-2030000D03*
X-3200000Y-1776000D03*
X-3200000Y-1522000D03*
X-3163500Y+641500D03*
X-3163500Y+387500D03*
X-3163500Y+133500D03*
X-3163500Y-120500D03*
X-3163500Y-374500D03*
X-3163500Y-628500D03*
D28*
X-500000Y+600000D03*
X+516000Y+600000D03*
X+1800000Y-1800000D03*
X+2816000Y-1800000D03*
X-2050000Y+200000D03*
X-1542000Y+200000D03*
M02*
