G04 PROTEUS GERBER X2 FILE*
%TF.GenerationSoftware,Labcenter,Proteus,8.7-SP3-Build25561*%
%TF.CreationDate,2018-12-01T16:26:02+00:00*%
%TF.FileFunction,Copper,L2,Bot*%
%TF.FilePolarity,Positive*%
%TF.Part,Single*%
%TF.SameCoordinates,{6994f0fc-588b-4978-b2a0-abdd5f5918e5}*%
%FSLAX45Y45*%
%MOMM*%
G01*
%TA.AperFunction,Conductor*%
%ADD10C,1.000000*%
%TA.AperFunction,ViaPad*%
%ADD11C,0.762000*%
%TA.AperFunction,ComponentPad*%
%ADD12C,3.048000*%
%ADD13C,2.286000*%
%TA.AperFunction,WasherPad*%
%ADD14R,1.280000X1.280000*%
%TA.AperFunction,ComponentPad*%
%ADD15C,1.280000*%
%AMPPAD006*
4,1,36,
0.457200,-1.270000,
-0.457200,-1.270000,
-0.519520,-1.263940,
-0.577160,-1.246490,
-0.628980,-1.218770,
-0.673890,-1.181890,
-0.710760,-1.136980,
-0.738480,-1.085160,
-0.755930,-1.027520,
-0.762000,-0.965200,
-0.762000,0.965200,
-0.755930,1.027520,
-0.738480,1.085160,
-0.710760,1.136980,
-0.673890,1.181890,
-0.628980,1.218770,
-0.577160,1.246490,
-0.519520,1.263940,
-0.457200,1.270000,
0.457200,1.270000,
0.519520,1.263940,
0.577160,1.246490,
0.628980,1.218770,
0.673890,1.181890,
0.710760,1.136980,
0.738480,1.085160,
0.755930,1.027520,
0.762000,0.965200,
0.762000,-0.965200,
0.755930,-1.027520,
0.738480,-1.085160,
0.710760,-1.136980,
0.673890,-1.181890,
0.628980,-1.218770,
0.577160,-1.246490,
0.519520,-1.263940,
0.457200,-1.270000,
0*%
%TA.AperFunction,ComponentPad*%
%ADD16PPAD006*%
%ADD17R,2.032000X2.032000*%
%TA.AperFunction,ComponentPad*%
%ADD18C,1.778000*%
%ADD19R,1.905000X1.905000*%
%TA.AperFunction,ComponentPad*%
%ADD70R,1.270000X1.270000*%
%ADD71C,1.270000*%
%TA.AperFunction,ComponentPad*%
%ADD20C,2.032000*%
%AMDIL013*
4,1,8,
-0.762000,0.965200,-0.457200,1.270000,0.457200,1.270000,0.762000,0.965200,0.762000,-0.965200,
0.457200,-1.270000,-0.457200,-1.270000,-0.762000,-0.965200,-0.762000,0.965200,
0*%
%ADD21DIL013*%
%TA.AperFunction,Profile*%
%ADD22C,0.203200*%
%TD.AperFunction*%
D10*
X-3000000Y+2900000D02*
X-2700000Y+2600000D01*
X-2100000Y+2600000D01*
X-2100000Y+3616000D02*
X-1500000Y+3016000D01*
X-1500000Y+2600000D01*
X-500000Y+3616000D02*
X+134000Y+3616000D01*
X+600000Y+3150000D01*
X-708000Y+4400000D02*
X-454000Y+4400000D01*
X-200000Y+4400000D01*
X+54000Y+4400000D01*
X+308000Y+4400000D01*
X+600000Y+2650000D02*
X+600000Y+2350000D01*
X+1150000Y+1800000D01*
X+1846000Y+1800000D01*
X-600000Y+3616000D02*
X-500000Y+3616000D01*
X-1100000Y+3616000D02*
X-600000Y+3616000D01*
X+600000Y+2650000D02*
X+1046000Y+3096000D01*
X+1046000Y+4300000D01*
X+1554000Y+4300000D02*
X+1554000Y+2746000D01*
X+1800000Y+2500000D01*
X+2246000Y+4200000D02*
X+1800000Y+3754000D01*
X+1800000Y+3516000D01*
X+2500000Y+3516000D02*
X+3000000Y+4016000D01*
X+3000000Y+4200000D01*
X+3300000Y+3162000D02*
X+3300000Y+2908000D01*
X+3300000Y+2654000D01*
X+3300000Y+1892000D02*
X+3300000Y+2146000D01*
X+3300000Y+2400000D02*
X+3300000Y+2146000D01*
X+3300000Y+2400000D02*
X+2600000Y+2400000D01*
X+2500000Y+2500000D01*
X+2100000Y+2100000D01*
X+2100000Y+1800000D01*
X+1300000Y+4359565D02*
X+1601256Y+4660821D01*
X+1650338Y+4660821D01*
X+2085942Y+4660821D01*
X+2496763Y+4250000D01*
X+2550000Y+4250000D01*
X+3300000Y+108000D02*
X+408000Y+108000D01*
X+400000Y+100000D01*
X+400000Y-152000D02*
X+3294000Y-152000D01*
X+3300000Y-146000D01*
X+400000Y-406000D02*
X+3294000Y-406000D01*
X+3300000Y-400000D01*
X+3300000Y-654000D02*
X+406000Y-654000D01*
X+400000Y-660000D01*
X+3300000Y-908000D02*
X+406000Y-908000D01*
X+400000Y-914000D01*
X+400000Y-1168000D02*
X+3294000Y-1168000D01*
X+3300000Y-1162000D01*
X+400000Y-2184000D02*
X+3300000Y-2184000D01*
X+3300000Y-2438000D02*
X+400000Y-2438000D01*
X+3300000Y-2692000D02*
X+400000Y-2692000D01*
X+400000Y-2946000D02*
X+3300000Y-2946000D01*
X+400000Y-3200000D02*
X+3300000Y-3200000D01*
X+3300000Y-3454000D02*
X-108000Y-3454000D01*
X-362000Y-3200000D01*
X+400000Y-1930000D02*
X+400000Y-1676000D01*
X-1000000Y-1800000D02*
X-970000Y-1830000D01*
X-870000Y-1930000D01*
X-362000Y-1930000D01*
X-1000000Y-2308000D02*
X-486000Y-2308000D01*
X-362000Y-2184000D01*
X-2100000Y+2600000D02*
X-1838772Y+2338772D01*
X-1816844Y+2338772D01*
X-1361228Y+2338772D01*
X-1100000Y+2600000D01*
X-3000000Y+3408000D02*
X-2563717Y+3844283D01*
X-1727980Y+3844283D01*
X-1500000Y+3616303D01*
X-1500000Y+3616000D01*
X-1500000Y+3378785D01*
X-1454461Y+3333246D01*
X-1193667Y+3072452D01*
X-905322Y+3072452D01*
X-500000Y+2667130D01*
X-500000Y+2600000D01*
X+1800000Y+2500000D02*
X+2143485Y+2843485D01*
X+2186536Y+2843485D01*
X+2806318Y+2843485D01*
X+3005533Y+2644270D01*
X+3290270Y+2644270D01*
X+3300000Y+2654000D01*
X-1500000Y+2600000D02*
X-1458920Y+2600000D01*
X-1252060Y+2806860D01*
X-1000000Y+2800000D01*
X-630077Y+2406818D01*
X-101252Y+2406818D01*
X+141930Y+2650000D01*
X+600000Y+2650000D01*
X+2500000Y+4200000D02*
X+2550000Y+4250000D01*
X+2758404Y+4458404D01*
X+3178312Y+4458404D01*
X+3254000Y+4382716D01*
X+3254000Y+4200000D01*
X-454000Y+4400000D02*
X-454000Y+3662000D01*
X-500000Y+3616000D01*
X+308000Y+4400000D02*
X+585067Y+4677067D01*
X+1016754Y+4677067D01*
X+1300000Y+4393821D01*
X+1300000Y+4359565D01*
X+1300000Y+4355821D01*
X+1300000Y+4300000D01*
X+3254000Y+4200000D02*
X+3542140Y+3911860D01*
X+3542140Y+1598467D01*
X+3062803Y+1598467D01*
X+2879962Y+1781308D01*
X+2372692Y+1781308D01*
X+2354000Y+1800000D01*
X+1800000Y-1800000D02*
X+1200000Y-1800000D01*
X+1100000Y-1700000D01*
X+400000Y-1422000D02*
X+1076000Y-1422000D01*
X+1100000Y-1446000D01*
X-500000Y+600000D02*
X-500000Y+240000D01*
X-362000Y+102000D01*
X+1800000Y+2500000D02*
X+1270000Y+1970000D01*
X+1270000Y+1968500D01*
X+930491Y+1653459D02*
X+930491Y+1014491D01*
X+516000Y+600000D01*
X-362000Y-1676000D02*
X+146000Y-1676000D01*
X+400000Y-1422000D01*
X-3200000Y-3300000D02*
X-716000Y-3300000D01*
X-362000Y-2946000D01*
X-3200000Y-3046000D02*
X-716000Y-3046000D01*
X-362000Y-2692000D01*
X-3200000Y-2792000D02*
X-716000Y-2792000D01*
X-362000Y-2438000D01*
X-3163500Y-120500D02*
X-393500Y-120500D01*
X-362000Y-152000D01*
X-3163500Y-374500D02*
X-393500Y-374500D01*
X-362000Y-406000D01*
X-3163500Y+641500D02*
X-858500Y+641500D01*
X-200000Y+1300000D01*
X+308000Y+1300000D02*
X+308000Y+808000D01*
X+516000Y+600000D01*
X+317500Y+444500D01*
X-5427Y-106376D01*
X-5427Y-1112245D01*
X-315182Y-1422000D01*
X-362000Y-1422000D01*
X-3163500Y-120500D02*
X-3322546Y-120500D01*
X-3556000Y-353954D01*
X-3556000Y-1397000D01*
X-3431000Y-1522000D01*
X-3200000Y-1522000D01*
X-3163500Y-374500D02*
X-3294933Y-374500D01*
X-3397057Y-476624D01*
X-3397057Y-1346200D01*
X-3406021Y-1355164D01*
X-3471761Y-1683870D02*
X-3379631Y-1776000D01*
X-3200000Y-1776000D01*
X+930491Y+1653459D02*
X-251540Y+1653459D01*
X-925976Y+979023D01*
X-3275478Y+979023D01*
X-3528967Y+725534D01*
X-3528967Y+417467D01*
X-3245000Y+133500D01*
X-3163500Y+133500D01*
X+400000Y-1930000D02*
X+610001Y-1930000D01*
X+730921Y-1809080D01*
X+730921Y-1703430D01*
X+720511Y+295258D02*
X+720511Y+395489D01*
X+516000Y+600000D01*
X+2816000Y-1800000D02*
X+3133500Y-1800000D01*
X+3300000Y-1966500D01*
X+3300000Y-2184000D01*
X-3200000Y-2538000D02*
X-2921000Y-2476500D01*
X-1676000Y-1168000D01*
X-362000Y-1168000D01*
X-3200000Y-2030000D02*
X-3045999Y-2030000D01*
X-1675999Y-660000D01*
X-362000Y-660000D01*
X-3200000Y-2284000D02*
X-2952750Y-2190750D01*
X-1676000Y-914000D01*
X-362000Y-914000D01*
X-362000Y-1676000D02*
X-478958Y-1676000D01*
X-734650Y-1420308D01*
X-1501308Y-1420308D01*
X-2008000Y-1927000D01*
X-1500000Y-1927000D02*
X-1342122Y-1769122D01*
X-1101600Y-1769122D01*
X-1000000Y-1800000D01*
X-1492000Y-2427000D02*
X-1119000Y-2427000D01*
X-1000000Y-2308000D01*
X-3163500Y-628500D02*
X-2901192Y-890808D01*
X-2901192Y-1649854D01*
X-2906461Y-2652461D02*
X-2803834Y-2652461D01*
X-2205182Y-2053809D01*
X-2086373Y-1935000D01*
X-2000000Y-1935000D01*
X-2008000Y-1927000D01*
X-2000000Y-2427000D02*
X-2000000Y-1935000D01*
X-1542000Y+200000D02*
X-1049842Y+200000D01*
X-728739Y+521103D01*
X-649842Y+600000D01*
X-500000Y+600000D01*
X-2050000Y+200000D02*
X-2911500Y+200000D01*
X-2921000Y+190500D01*
X-2921168Y-622311D02*
X-3157311Y-622311D01*
X-3163500Y-628500D01*
X+2354000Y+1800000D02*
X+2354000Y+1651000D01*
X+2908719Y+1367471D01*
X+3619500Y+656690D01*
X+3619500Y-1307518D01*
X+3651753Y-1339771D01*
X+3545524Y-1446000D01*
X+1100000Y-1446000D01*
D11*
X+1270000Y+1968500D03*
X-3406021Y-1355164D03*
X-3471761Y-1683870D03*
X+930491Y+1653459D03*
X+730921Y-1703430D03*
X+720511Y+295258D03*
X-2901192Y-1649854D03*
X-2906461Y-2652461D03*
X-2921000Y+190500D03*
X-2921168Y-622311D03*
D12*
X-3000000Y+2900000D03*
X-3000000Y+3408000D03*
D13*
X-2100000Y+2600000D03*
X-2100000Y+3616000D03*
X-1500000Y+3616000D03*
X-1500000Y+2600000D03*
X-1100000Y+3616000D03*
X-1100000Y+2600000D03*
X-500000Y+3616000D03*
X-500000Y+2600000D03*
D14*
X+600000Y+2650000D03*
D15*
X+600000Y+3150000D03*
D16*
X+2354000Y+1800000D03*
X+2100000Y+1800000D03*
X+1846000Y+1800000D03*
D17*
X+1046000Y+4300000D03*
X+1300000Y+4300000D03*
X+1554000Y+4300000D03*
X-708000Y+4400000D03*
X-454000Y+4400000D03*
X-200000Y+4400000D03*
X+54000Y+4400000D03*
X+308000Y+4400000D03*
D18*
X+1800000Y+3516000D03*
X+1800000Y+2500000D03*
X+2500000Y+3516000D03*
X+2500000Y+2500000D03*
D19*
X+2246000Y+4200000D03*
X+2500000Y+4200000D03*
X+3000000Y+4200000D03*
X+3254000Y+4200000D03*
D17*
X+3300000Y+3162000D03*
X+3300000Y+2908000D03*
X+3300000Y+2654000D03*
X+3300000Y+2400000D03*
X+3300000Y+2146000D03*
X+3300000Y+1892000D03*
D70*
X-362000Y+102000D03*
D71*
X-362000Y-152000D03*
X-362000Y-406000D03*
X-362000Y-660000D03*
X-362000Y-914000D03*
X-362000Y-1168000D03*
X-362000Y-1422000D03*
X-362000Y-1676000D03*
X-362000Y-1930000D03*
X-362000Y-2184000D03*
X-362000Y-2438000D03*
X-362000Y-2692000D03*
X-362000Y-2946000D03*
X-362000Y-3200000D03*
X+400000Y-3200000D03*
X+400000Y-2946000D03*
X+400000Y-2692000D03*
X+400000Y-2438000D03*
X+400000Y-2184000D03*
X+400000Y-1930000D03*
X+400000Y-1676000D03*
X+400000Y-1422000D03*
X+400000Y-1168000D03*
X+400000Y-914000D03*
X+400000Y-660000D03*
X+400000Y-406000D03*
X+400000Y-152000D03*
X+400000Y+100000D03*
D20*
X-1000000Y-2308000D03*
X-1000000Y-1800000D03*
D18*
X-1500000Y-1927000D03*
X-2008000Y-1927000D03*
X-1492000Y-2427000D03*
X-2000000Y-2427000D03*
X+308000Y+1300000D03*
X-200000Y+1300000D03*
D19*
X+1100000Y-1700000D03*
X+1100000Y-1446000D03*
D17*
X+3300000Y+108000D03*
X+3300000Y-146000D03*
X+3300000Y-400000D03*
X+3300000Y-654000D03*
X+3300000Y-908000D03*
X+3300000Y-1162000D03*
X+3300000Y-2184000D03*
X+3300000Y-2438000D03*
X+3300000Y-2692000D03*
X+3300000Y-2946000D03*
X+3300000Y-3200000D03*
X+3300000Y-3454000D03*
X-3200000Y-3300000D03*
X-3200000Y-3046000D03*
X-3200000Y-2792000D03*
X-3200000Y-2538000D03*
X-3200000Y-2284000D03*
X-3200000Y-2030000D03*
X-3200000Y-1776000D03*
X-3200000Y-1522000D03*
X-3163500Y+641500D03*
X-3163500Y+387500D03*
X-3163500Y+133500D03*
X-3163500Y-120500D03*
X-3163500Y-374500D03*
X-3163500Y-628500D03*
D18*
X-500000Y+600000D03*
X+516000Y+600000D03*
X+1800000Y-1800000D03*
X+2816000Y-1800000D03*
D21*
X-2050000Y+200000D03*
X-1542000Y+200000D03*
D22*
X-3750000Y-5000000D02*
X+3750000Y-5000000D01*
X+3750000Y+5000000D01*
X-3750000Y+5000000D01*
X-3750000Y-5000000D01*
M02*
